<svg id="mortarboard" xmlns="http://www.w3.org/2000/svg" width="93.17" height="93.17" viewBox="0 0 154.746 129.075">
  <path id="Path_18" data-name="Path 18" d="M151.721,68.426l-72.839-25.7a4.531,4.531,0,0,0-3.017,0L3.025,68.426a4.534,4.534,0,0,0-.01,8.547l72.839,25.895a4.53,4.53,0,0,0,3.037,0l72.839-25.895a4.534,4.534,0,0,0-.01-8.547Z" transform="translate(0 -42.468)" fill="#132149"/>
  <path id="Path_19" data-name="Path 19" d="M444.486,237.279V197.734l-9.067,3.223v36.321a9.1,9.1,0,0,0,0,15.79v22.28a4.534,4.534,0,0,0,9.067,0V253.069a9.1,9.1,0,0,0,0-15.79Z" transform="translate(-300.629 -150.807)" fill="#132149"/>
  <path id="Path_20" data-name="Path 20" d="M150.948,237.755a13.566,13.566,0,0,1-4.556-.786l-40.948-14.557v19.95c0,4.881,5.092,9.008,15.134,12.268a101.36,101.36,0,0,0,30.37,4.406,101.361,101.361,0,0,0,30.37-4.406c10.042-3.259,15.134-7.387,15.134-12.268v-19.95L155.5,236.969A13.569,13.569,0,0,1,150.948,237.755Z" transform="translate(-73.575 -168.026)" fill="#eb9b2c"/>
</svg>
