<svg id="Group_37" data-name="Group 37" xmlns="http://www.w3.org/2000/svg" width="93.17" height="93.17" viewBox="0 0 93.168 93.168">
  <g id="Group_36" data-name="Group 36">
    <path id="Path_22" data-name="Path 22" d="M72.981,46.109a4.641,4.641,0,0,0-3.893-4.595l-5.14-.857.988-4.943h12.7v9.317h3.106v-30.1L92.309,9.153a1.553,1.553,0,0,0,0-2.778L79.887.164a1.553,1.553,0,0,0-2.247,1.39V26.4H65.932a9.315,9.315,0,1,0-13.057.786L39.5,39.075l-8.685,4.342-4.453-.742a9.314,9.314,0,1,0-12.21.123,1.381,1.381,0,0,0-.07.123L9.266,55.435a7.71,7.71,0,0,0,.654,6.89,7.9,7.9,0,0,0,.839,1.1L6.531,70.466.455,76.542a1.551,1.551,0,0,0,0,2.2L5.114,83.4a1.552,1.552,0,0,0,2.2,0l7.764-7.764a1.552,1.552,0,0,0,.194-.236l5.964-8.947,2.061.186v6.346H21.739a1.551,1.551,0,0,0-1.553,1.553V85.721L1.2,90.1A1.553,1.553,0,0,0,0,91.615v1.553H3.106v-.317l18.983-4.38a1.553,1.553,0,0,0,1.2-1.514V76.087H46.584a1.55,1.55,0,0,0,1.154-.514L61.25,60.559H93.168V57.454H72.981ZM80.745,4.066l7.4,3.7-7.4,3.7ZM52.8,20.187A6.211,6.211,0,1,1,59.006,26.4,6.217,6.217,0,0,1,52.8,20.187ZM50.606,33.355l-2.362,6.14L43.857,42.8l-1.444-2.166Zm-36.63,2.36a6.211,6.211,0,1,1,6.211,6.211A6.217,6.217,0,0,1,13.975,35.715ZM12.769,73.545,6.212,80.1,3.749,77.64l5.113-5.113a1.542,1.542,0,0,0,.233-.3l4.169-6.949a7.813,7.813,0,0,0,2.543.677l1.9.172Zm18.287-.564H26.4V65.218a1.553,1.553,0,0,0-1.411-1.547l-8.9-.809a4.657,4.657,0,0,1-3.925-6.311l4.43-11.52h5.015L30.8,46.563a1.561,1.561,0,0,0,.949-.143l8.09-4.045,1.422,2.134L32.2,49.69H24.845a1.553,1.553,0,0,0-1.506,1.177l-1.553,6.211a1.552,1.552,0,0,0,1.252,1.907l6.722,1.121a1.547,1.547,0,0,1,1.3,1.531V72.982ZM62.112,57.454H60.559a1.55,1.55,0,0,0-1.154.514L45.893,72.982H34.162V61.637a4.641,4.641,0,0,0-3.893-4.595L25.205,56.2l.852-3.4h6.551a1.558,1.558,0,0,0,.77-.2l10.87-6.211c.023-.014.037-.039.061-.053s.071-.031.1-.054l3.244-2.446a7.773,7.773,0,0,0,1.082,2.97,7.9,7.9,0,0,0,.839,1.1l-4.227,7.045-6.076,6.076a1.551,1.551,0,0,0,0,2.2l4.658,4.658a1.552,1.552,0,0,0,2.2,0L53.893,60.1a1.552,1.552,0,0,0,.194-.236l5.964-8.947,2.061.186Zm-10.028-7.7a7.813,7.813,0,0,0,2.543.677l1.9.172-4.944,7.416-6.556,6.557-2.463-2.463L47.682,57a1.543,1.543,0,0,0,.233-.3Zm17.792,7.7H65.217V49.69a1.553,1.553,0,0,0-1.411-1.547l-8.9-.809a4.657,4.657,0,0,1-3.925-6.311l4.43-11.52H77.64v3.106H63.665a1.552,1.552,0,0,0-1.522,1.248L60.59,41.622a1.551,1.551,0,0,0,1.267,1.837l6.722,1.121a1.544,1.544,0,0,1,1.3,1.529Z" transform="translate(0 0)" fill="#132149"/>
  </g>
</svg>
