<svg id="ear" xmlns="http://www.w3.org/2000/svg" width="93.17" height="93.17" viewBox="0 0 110 109.57">
  <g id="Group_18" data-name="Group 18" transform="translate(34.805)">
    <g id="Group_17" data-name="Group 17">
      <path id="Path_14" data-name="Path 14" d="M199.617,1h-.02A37.6,37.6,0,0,0,162,38.6V56h6.445V38.6A31.152,31.152,0,0,1,199.6,7.445h.016A31.357,31.357,0,0,1,230.75,38.927a65.058,65.058,0,0,1-19.18,46.306l-15.209,15.209a12.577,12.577,0,0,1-21.47-8.893v-5.47h-6.445v5.47A19.022,19.022,0,0,0,200.918,105L216.127,89.79A71.932,71.932,0,0,0,237.2,38.927,37.81,37.81,0,0,0,199.617,1Z" transform="translate(-162 -1)" fill="#132149"/>
    </g>
  </g>
  <g id="Group_20" data-name="Group 20" transform="translate(50.918 16.113)">
    <g id="Group_19" data-name="Group 19">
      <path id="Path_15" data-name="Path 15" d="M258.484,76A21.484,21.484,0,0,0,237,97.484h0c0,.053,0,.106,0,.159v5.872a16.561,16.561,0,0,0,4.883,11.787,5.336,5.336,0,0,1,0,7.546,12.188,12.188,0,0,0-3.594,8.675v1.624a10.109,10.109,0,0,0,10.1,10.1h.215a10.109,10.109,0,0,0,10.1-10.1h-6.445A3.656,3.656,0,0,1,248.6,136.8h-.215a3.656,3.656,0,0,1-3.652-3.652v-1.624a5.785,5.785,0,0,1,1.706-4.118,11.781,11.781,0,0,0,0-16.661,10.158,10.158,0,0,1-2.995-7.23V97.644a6.556,6.556,0,0,1,6.334-6.6h.111a6.446,6.446,0,0,1,6.446,6.445h6.445A12.887,12.887,0,0,0,250.686,84.62a14.959,14.959,0,0,1,7.806-2.175,15.225,15.225,0,0,1,15.031,15.368,49.071,49.071,0,0,1-4.072,19.707l5.909,2.573a55.477,55.477,0,0,0,4.608-22.28A21.68,21.68,0,0,0,258.484,76Z" transform="translate(-237 -76)" fill="#132149"/>
    </g>
  </g>
  <g id="Group_22" data-name="Group 22" transform="translate(0 74.224)">
    <g id="Group_21" data-name="Group 21" transform="translate(0 0)">
      <ellipse id="Ellipse_1" data-name="Ellipse 1" cx="4" cy="4.5" rx="4" ry="4.5" transform="translate(0 -0.224)" fill="#132149"/>
    </g>
  </g>
  <g id="Group_24" data-name="Group 24" transform="translate(11.893 66.479)">
    <g id="Group_23" data-name="Group 23">
      <path id="Path_16" data-name="Path 16" d="M59.912,310.432l-4.557,4.557a10.755,10.755,0,0,1,0,15.192l4.557,4.557A17.207,17.207,0,0,0,59.912,310.432Z" transform="translate(-55.355 -310.432)" fill="#132149"/>
    </g>
  </g>
  <g id="Group_26" data-name="Group 26" transform="translate(21.008 57.364)">
    <g id="Group_25" data-name="Group 25">
      <path id="Path_17" data-name="Path 17" d="M102.339,268.005l-4.557,4.557a23.659,23.659,0,0,1,0,33.422l4.557,4.557A30.112,30.112,0,0,0,102.339,268.005Z" transform="translate(-97.782 -268.005)" fill="#132149"/>
    </g>
  </g>
</svg>
