<svg id="google-" xmlns="http://www.w3.org/2000/svg" width="43.09" height="43.09" viewBox="0 0 43.09 43.09">
  <path id="Path_1" data-name="Path 1" d="M36.78,6.311A21.545,21.545,0,1,0,6.311,36.781,21.545,21.545,0,0,0,36.78,6.311Zm-.952,29.518A20.2,20.2,0,1,1,7.263,7.263,20.2,20.2,0,0,1,35.828,35.828Z" transform="translate(0 0)" fill="#132149"/>
  <path id="Path_2" data-name="Path 2" d="M131.442,112.258a.673.673,0,1,0-1.046.848,17.506,17.506,0,0,1-25.271,24.07.673.673,0,0,0-.9,1,18.853,18.853,0,0,0,27.215-25.921Z" transform="translate(-95.25 -102.582)" fill="#132149"/>
  <path id="Path_3" data-name="Path 3" d="M33.347,50.852A17.506,17.506,0,0,1,62.522,37.8a.673.673,0,0,0,.9-1A18.853,18.853,0,0,0,36.2,62.722a.673.673,0,1,0,1.046-.848A17.543,17.543,0,0,1,33.347,50.852Z" transform="translate(-29.307 -29.307)" fill="#132149"/>
  <path id="Path_4" data-name="Path 4" d="M176.015,292.251a2.737,2.737,0,0,0,0,4.659,5.155,5.155,0,0,0,5.722,0,2.737,2.737,0,0,0,0-4.659,5.155,5.155,0,0,0-5.722,0Zm5.676,2.33c0,1-1.289,1.85-2.815,1.85s-2.815-.847-2.815-1.85,1.289-1.85,2.815-1.85S181.691,293.578,181.691,294.58Z" transform="translate(-160.011 -266.861)" fill="#eb9b2c"/>
  <path id="Path_5" data-name="Path 5" d="M150.215,135.144a.673.673,0,0,0-.625-.422H142.5a7.072,7.072,0,0,0-4.552,1.683,5.432,5.432,0,0,0-2,4.052,5.323,5.323,0,0,0,4.52,5.481q0,.065.008.128a7.24,7.24,0,0,0-3.943,1.775,5.347,5.347,0,0,0-1.864,3.878c0,2.76,3.09,4.763,7.348,4.763,3.607,0,7.337-2.077,7.337-5.553,0-2.225-.659-3.434-2.713-4.977l-.123-.092a9.606,9.606,0,0,1-.963-.786,5.058,5.058,0,0,1,.578-.5,5.084,5.084,0,0,0,2.166-4.037,5.568,5.568,0,0,0-.54-2.452l2.3-2.2A.674.674,0,0,0,150.215,135.144Zm-3.767,2.33a.673.673,0,0,0-.1.852,4.051,4.051,0,0,1,.6,2.211,3.79,3.79,0,0,1-1.649,2.976c-.928.725-1.155,1.06-1.156,1.706a.673.673,0,0,0,.042.236c.109.294.41.659,1.524,1.487l.12.09c1.726,1.3,2.173,2.1,2.173,3.9a3.657,3.657,0,0,1-1.8,3.025,7.715,7.715,0,0,1-4.187,1.181,8.658,8.658,0,0,1-4.436-1.057,2.87,2.87,0,0,1-1.565-2.359c0-2.523,2.752-4.3,5.322-4.372a.673.673,0,0,0,.6-.947,1.422,1.422,0,0,1-.121-.592,1.946,1.946,0,0,1,.032-.348.673.673,0,0,0-.626-.793,4,4,0,0,1-3.924-4.21,4.093,4.093,0,0,1,1.531-3.032,5.706,5.706,0,0,1,3.674-1.357h5.419Z" transform="translate(-123.332 -123.384)" fill="#eb9b2c"/>
  <path id="Path_6" data-name="Path 6" d="M189.2,161.4a2.483,2.483,0,0,0-1.272,1.935,4.352,4.352,0,0,0,.469,2.534,3.709,3.709,0,0,0,3.076,2.24,2.194,2.194,0,0,0,1-.235h0c1.367-.691,1.72-2.654.8-4.469a4.352,4.352,0,0,0-1.761-1.881A2.483,2.483,0,0,0,189.2,161.4Zm1.674,1.309a3.041,3.041,0,0,1,1.2,1.3c.548,1.084.451,2.327-.208,2.66s-1.717-.326-2.265-1.41a3.042,3.042,0,0,1-.338-1.737,1.2,1.2,0,0,1,.546-.922.838.838,0,0,1,.382-.087A1.51,1.51,0,0,1,190.871,162.705Z" transform="translate(-172.077 -147.602)" fill="#eb9b2c"/>
  <path id="Path_7" data-name="Path 7" d="M316.038,158.8a.673.673,0,0,0,.673-.673v-2.693H319.4a.673.673,0,1,0,0-1.347h-2.693V151.4a.673.673,0,1,0-1.347,0v2.693h-2.693a.673.673,0,1,0,0,1.347h2.693v2.693A.673.673,0,0,0,316.038,158.8Z" transform="translate(-285.74 -138.037)" fill="#eb9b2c"/>
</svg>
