<svg id="facebook_1_" data-name="facebook (1)" xmlns="http://www.w3.org/2000/svg" width="43.09" height="43.09" viewBox="0 0 43.09 43.09">
  <path id="Path_8" data-name="Path 8" d="M193.137,146.218h4.334a.673.673,0,0,0,.673-.673V135.79H200.4a.673.673,0,0,0,.67-.6l.38-3.684a.673.673,0,0,0-.67-.742h-2.631v-1.492c0-.308.1-.331.246-.331h2.33a.673.673,0,0,0,.673-.673v-3.577a.673.673,0,0,0-.671-.673L197.51,124a4.74,4.74,0,0,0-4.065,1.821,5.542,5.542,0,0,0-.981,3.227v1.711h-1.388a.673.673,0,0,0-.673.673v3.684a.673.673,0,0,0,.673.673h1.388v9.755A.673.673,0,0,0,193.137,146.218Zm-1.388-11.775v-2.337h1.388a.673.673,0,0,0,.673-.673v-2.385a4.271,4.271,0,0,1,.719-2.429,3.465,3.465,0,0,1,2.977-1.273l2.54.01v2.233H198.39a1.549,1.549,0,0,0-1.593,1.678v2.165a.673.673,0,0,0,.673.673h2.558l-.241,2.337h-2.317a.673.673,0,0,0-.673.673v9.755H193.81v-9.755a.673.673,0,0,0-.673-.673h-1.388Z" transform="translate(-174.379 -113.564)" fill="#eb9b2c"/>
  <path id="Path_9" data-name="Path 9" d="M36.78,6.311A21.545,21.545,0,1,0,6.311,36.781,21.545,21.545,0,0,0,36.78,6.311Zm-.952,29.518A20.2,20.2,0,1,1,7.263,7.263,20.2,20.2,0,0,1,35.828,35.828Z" transform="translate(0 0)" fill="#132149"/>
  <path id="Path_10" data-name="Path 10" d="M131.442,112.258a.673.673,0,0,0-1.046.848,17.506,17.506,0,0,1-25.271,24.07.673.673,0,1,0-.9,1,18.853,18.853,0,0,0,27.215-25.921Z" transform="translate(-95.25 -102.582)" fill="#132149"/>
  <path id="Path_11" data-name="Path 11" d="M33.347,50.852A17.506,17.506,0,0,1,62.522,37.8a.673.673,0,0,0,.9-1A18.853,18.853,0,0,0,36.2,62.722a.673.673,0,1,0,1.046-.848A17.543,17.543,0,0,1,33.347,50.852Z" transform="translate(-29.307 -29.307)" fill="#132149"/>
</svg>

