<svg xmlns="http://www.w3.org/2000/svg" width="43.09" height="43.09" viewBox="0 0 43.09 43.09">
  <g id="Group_63" data-name="Group 63" transform="translate(206 -4171.396)">
    <g id="google-" transform="translate(-206 4171.396)">
      <path id="Path_1" data-name="Path 1" d="M36.78,6.311A21.545,21.545,0,1,0,6.311,36.781,21.545,21.545,0,0,0,36.78,6.311Zm-.952,29.518A20.2,20.2,0,1,1,7.263,7.263,20.2,20.2,0,0,1,35.828,35.828Z" transform="translate(0 0)" fill="#132149"/>
      <path id="Path_2" data-name="Path 2" d="M131.442,112.258a.673.673,0,1,0-1.046.848,17.506,17.506,0,0,1-25.271,24.07.673.673,0,0,0-.9,1,18.853,18.853,0,0,0,27.215-25.921Z" transform="translate(-95.25 -102.582)" fill="#132149"/>
      <path id="Path_3" data-name="Path 3" d="M33.347,50.852A17.506,17.506,0,0,1,62.522,37.8a.673.673,0,0,0,.9-1A18.853,18.853,0,0,0,36.2,62.722a.673.673,0,1,0,1.046-.848A17.543,17.543,0,0,1,33.347,50.852Z" transform="translate(-29.307 -29.307)" fill="#132149"/>
    </g>
    <g id="Group_62" data-name="Group 62" transform="translate(-195.349 4182.177)">
      <g id="Group_13" data-name="Group 13">
        <path id="Path_13" data-name="Path 13" d="M121.243,117.758l-3.327-3.315a1.936,1.936,0,0,0-2.738,0l0,0-1.906,1.906a.42.42,0,0,1-.539.047,21.973,21.973,0,0,1-5.133-5.038.414.414,0,0,1,.041-.539l1.954-1.954a1.936,1.936,0,0,0,0-2.735l-3.327-3.327a1.983,1.983,0,0,0-2.741,0l-1.054,1.054A5.92,5.92,0,0,0,101,109.9a17.759,17.759,0,0,0,2.167,4.393,23.028,23.028,0,0,0,6.648,6.53,16.949,16.949,0,0,0,4.926,2.19,5.7,5.7,0,0,0,1.373.166,5.991,5.991,0,0,0,4.221-1.776l.906-.906A1.936,1.936,0,0,0,121.243,117.758Zm-.838,1.928,0,0,.006-.018-.906.906a4.736,4.736,0,0,1-4.47,1.279,15.737,15.737,0,0,1-4.57-2.048,21.888,21.888,0,0,1-6.3-6.175,16.574,16.574,0,0,1-2.025-4.1,4.736,4.736,0,0,1,1.184-4.837l1.054-1.054a.752.752,0,0,1,1.063,0l0,0,3.327,3.327a.752.752,0,0,1,0,1.063l0,0-1.954,1.954a1.593,1.593,0,0,0-.166,2.072,23.322,23.322,0,0,0,5.417,5.316,1.6,1.6,0,0,0,2.048-.178L116,115.283a.752.752,0,0,1,1.063,0l0,0,3.333,3.339A.752.752,0,0,1,120.4,119.685Z" transform="translate(-100.712 -102.253)" fill="#eb9b2c"/>
      </g>
    </g>
  </g>
</svg>

